<svg width="200" height="60" viewBox="0 0 200 60" fill="none" xmlns="http://www.w3.org/2000/svg">
    <defs>
        <linearGradient id="heartGradient" x1="14" y1="16" x2="46" y2="45">
            <stop offset="0%" stop-color="#10b981"/>
            <stop offset="100%" stop-color="#06b6d4"/>
        </linearGradient>
    </defs>
    <!-- Heart shape -->
    <path d="M30 45C30 45 14 35 14 24C14 19 17 16 21 16C24 16 27 18 30 21C33 18 36 16 39 16C43 16 46 19 46 24C46 35 30 45 30 45Z" 
          fill="url(#heartGradient)" stroke="#10b981" stroke-width="1.5"/>
    <!-- Pulse line -->
    <path d="M18 30 L24 30 L26 24 L28 36 L30 28 L32 32 L34 30 L42 30" 
          stroke="#ffffff" stroke-width="2" stroke-linecap="round" stroke-linejoin="round" opacity="0.9"/>
    <!-- Text -->
    <text x="70" y="38" font-family="Arial, sans-serif" font-size="24" font-weight="bold" fill="#1f2937">Qyntec.ai</text>
</svg>
